<svg width="74" height="36" viewBox="0 0 74 36" fill="none" xmlns="http://www.w3.org/2000/svg">
<g clip-path="url(#clip0_1_86)">
<path fill-rule="evenodd" clip-rule="evenodd" d="M20.3215 19.8133L31.061 14.4592L4.44 1.18758C-1.48 4.13893 -1.48 8.93488 4.44 11.8862L20.3215 19.8133ZM46.0697 16.3795C51.8569 17.7322 60.0349 16.7768 66.0687 13.7687C73.3359 10.1457 74.721 4.97137 69.1615 2.19974C63.5831 -0.571877 53.1851 0.118663 45.9369 3.74164C39.9031 6.74974 38.0056 10.8268 40.7 13.7119C32.2564 17.9119 3.64308 32.1768 3.64308 32.1768L9.01282 34.8538L35.1215 21.8376L61.2303 34.8538L66.6 32.1768L40.4913 19.1606L46.0697 16.3795Z" fill="#FD0B7D"/>
</g>
<defs>
<clipPath id="clip0_1_86">
<rect width="74" height="35" fill="white" transform="translate(0 0.5)"/>
</clipPath>
</defs>
</svg>
